<mxfile host="app.diagrams.net" modified="2024-03-04T23:59:55.059Z" agent="Mozilla/5.0 (Windows NT 10.0; Win64; x64) AppleWebKit/537.36 (KHTML, like Gecko) Chrome/122.0.0.0 Safari/537.36" etag="-77rc8tRBzbJJ5mBL24I" version="23.1.5" type="device">
  <diagram id="C5RBs43oDa-KdzZeNtuy" name="Page-1">
    <mxGraphModel dx="989" dy="570" grid="1" gridSize="10" guides="1" tooltips="1" connect="1" arrows="1" fold="1" page="1" pageScale="1" pageWidth="827" pageHeight="1169" math="0" shadow="0">
      <root>
        <mxCell id="WIyWlLk6GJQsqaUBKTNV-0" />
        <mxCell id="WIyWlLk6GJQsqaUBKTNV-1" parent="WIyWlLk6GJQsqaUBKTNV-0" />
        <mxCell id="OEn_OylxVQoGn8vpEVn8-6" value="Да" style="edgeStyle=orthogonalEdgeStyle;rounded=0;orthogonalLoop=1;jettySize=auto;html=1;entryX=0.5;entryY=0;entryDx=0;entryDy=0;" edge="1" parent="WIyWlLk6GJQsqaUBKTNV-1" source="WIyWlLk6GJQsqaUBKTNV-6" target="OEn_OylxVQoGn8vpEVn8-1">
          <mxGeometry relative="1" as="geometry" />
        </mxCell>
        <mxCell id="OEn_OylxVQoGn8vpEVn8-30" value="Нет" style="edgeStyle=orthogonalEdgeStyle;rounded=0;orthogonalLoop=1;jettySize=auto;html=1;entryX=1;entryY=0.5;entryDx=0;entryDy=0;" edge="1" parent="WIyWlLk6GJQsqaUBKTNV-1" source="WIyWlLk6GJQsqaUBKTNV-6" target="OEn_OylxVQoGn8vpEVn8-2">
          <mxGeometry relative="1" as="geometry" />
        </mxCell>
        <mxCell id="WIyWlLk6GJQsqaUBKTNV-6" value="Есть корни на промежутке?" style="rhombus;whiteSpace=wrap;html=1;shadow=0;fontFamily=Helvetica;fontSize=12;align=center;strokeWidth=1;spacing=6;spacingTop=-4;" parent="WIyWlLk6GJQsqaUBKTNV-1" vertex="1">
          <mxGeometry x="165" y="120" width="130" height="80" as="geometry" />
        </mxCell>
        <mxCell id="OEn_OylxVQoGn8vpEVn8-3" style="edgeStyle=orthogonalEdgeStyle;rounded=0;orthogonalLoop=1;jettySize=auto;html=1;" edge="1" parent="WIyWlLk6GJQsqaUBKTNV-1" source="OEn_OylxVQoGn8vpEVn8-0" target="WIyWlLk6GJQsqaUBKTNV-6">
          <mxGeometry relative="1" as="geometry" />
        </mxCell>
        <mxCell id="OEn_OylxVQoGn8vpEVn8-0" value="Начало" style="ellipse;whiteSpace=wrap;html=1;" vertex="1" parent="WIyWlLk6GJQsqaUBKTNV-1">
          <mxGeometry x="170" y="30" width="120" height="50" as="geometry" />
        </mxCell>
        <mxCell id="OEn_OylxVQoGn8vpEVn8-44" style="edgeStyle=orthogonalEdgeStyle;rounded=0;orthogonalLoop=1;jettySize=auto;html=1;" edge="1" parent="WIyWlLk6GJQsqaUBKTNV-1" source="OEn_OylxVQoGn8vpEVn8-1" target="OEn_OylxVQoGn8vpEVn8-42">
          <mxGeometry relative="1" as="geometry" />
        </mxCell>
        <mxCell id="OEn_OylxVQoGn8vpEVn8-1" value="Посчитать lamda&lt;br&gt;phi(x) = x + lambda * f(x)&lt;br&gt;x = левая/правая граница" style="rounded=1;whiteSpace=wrap;html=1;fontSize=12;glass=0;strokeWidth=1;shadow=0;" vertex="1" parent="WIyWlLk6GJQsqaUBKTNV-1">
          <mxGeometry x="150" y="240" width="160" height="60" as="geometry" />
        </mxCell>
        <mxCell id="OEn_OylxVQoGn8vpEVn8-2" value="Конец" style="ellipse;whiteSpace=wrap;html=1;" vertex="1" parent="WIyWlLk6GJQsqaUBKTNV-1">
          <mxGeometry x="10" y="135" width="120" height="50" as="geometry" />
        </mxCell>
        <mxCell id="OEn_OylxVQoGn8vpEVn8-43" value="Да" style="edgeStyle=orthogonalEdgeStyle;rounded=0;orthogonalLoop=1;jettySize=auto;html=1;entryX=0.5;entryY=1;entryDx=0;entryDy=0;" edge="1" parent="WIyWlLk6GJQsqaUBKTNV-1" source="OEn_OylxVQoGn8vpEVn8-42" target="OEn_OylxVQoGn8vpEVn8-2">
          <mxGeometry relative="1" as="geometry" />
        </mxCell>
        <mxCell id="OEn_OylxVQoGn8vpEVn8-47" value="Нет" style="edgeStyle=orthogonalEdgeStyle;rounded=0;orthogonalLoop=1;jettySize=auto;html=1;" edge="1" parent="WIyWlLk6GJQsqaUBKTNV-1" source="OEn_OylxVQoGn8vpEVn8-42" target="OEn_OylxVQoGn8vpEVn8-45">
          <mxGeometry relative="1" as="geometry" />
        </mxCell>
        <mxCell id="OEn_OylxVQoGn8vpEVn8-42" value="phi&#39;(x) &amp;gt; 1?" style="rhombus;whiteSpace=wrap;html=1;shadow=0;fontFamily=Helvetica;fontSize=12;align=center;strokeWidth=1;spacing=6;spacingTop=-4;" vertex="1" parent="WIyWlLk6GJQsqaUBKTNV-1">
          <mxGeometry x="165" y="320" width="130" height="80" as="geometry" />
        </mxCell>
        <mxCell id="OEn_OylxVQoGn8vpEVn8-48" style="edgeStyle=orthogonalEdgeStyle;rounded=0;orthogonalLoop=1;jettySize=auto;html=1;entryX=0;entryY=0.5;entryDx=0;entryDy=0;" edge="1" parent="WIyWlLk6GJQsqaUBKTNV-1" source="OEn_OylxVQoGn8vpEVn8-45" target="OEn_OylxVQoGn8vpEVn8-46">
          <mxGeometry relative="1" as="geometry" />
        </mxCell>
        <mxCell id="OEn_OylxVQoGn8vpEVn8-49" value="Да" style="edgeStyle=orthogonalEdgeStyle;rounded=0;orthogonalLoop=1;jettySize=auto;html=1;" edge="1" parent="WIyWlLk6GJQsqaUBKTNV-1" source="OEn_OylxVQoGn8vpEVn8-45" target="OEn_OylxVQoGn8vpEVn8-46">
          <mxGeometry relative="1" as="geometry" />
        </mxCell>
        <mxCell id="OEn_OylxVQoGn8vpEVn8-51" value="Нет" style="edgeStyle=orthogonalEdgeStyle;rounded=0;orthogonalLoop=1;jettySize=auto;html=1;entryX=0.5;entryY=0;entryDx=0;entryDy=0;" edge="1" parent="WIyWlLk6GJQsqaUBKTNV-1" source="OEn_OylxVQoGn8vpEVn8-45" target="OEn_OylxVQoGn8vpEVn8-50">
          <mxGeometry relative="1" as="geometry" />
        </mxCell>
        <mxCell id="OEn_OylxVQoGn8vpEVn8-45" value="f(x) &amp;lt; погрешность?" style="rhombus;whiteSpace=wrap;html=1;shadow=0;fontFamily=Helvetica;fontSize=12;align=center;strokeWidth=1;spacing=6;spacingTop=-4;" vertex="1" parent="WIyWlLk6GJQsqaUBKTNV-1">
          <mxGeometry x="165" y="420" width="130" height="80" as="geometry" />
        </mxCell>
        <mxCell id="OEn_OylxVQoGn8vpEVn8-46" value="Результат" style="ellipse;whiteSpace=wrap;html=1;" vertex="1" parent="WIyWlLk6GJQsqaUBKTNV-1">
          <mxGeometry x="340" y="435" width="120" height="50" as="geometry" />
        </mxCell>
        <mxCell id="OEn_OylxVQoGn8vpEVn8-52" value="Да" style="edgeStyle=orthogonalEdgeStyle;rounded=0;orthogonalLoop=1;jettySize=auto;html=1;entryX=0.5;entryY=1;entryDx=0;entryDy=0;" edge="1" parent="WIyWlLk6GJQsqaUBKTNV-1" source="OEn_OylxVQoGn8vpEVn8-50" target="OEn_OylxVQoGn8vpEVn8-46">
          <mxGeometry relative="1" as="geometry" />
        </mxCell>
        <mxCell id="OEn_OylxVQoGn8vpEVn8-54" value="Нет" style="edgeStyle=orthogonalEdgeStyle;rounded=0;orthogonalLoop=1;jettySize=auto;html=1;entryX=0.5;entryY=0;entryDx=0;entryDy=0;" edge="1" parent="WIyWlLk6GJQsqaUBKTNV-1" source="OEn_OylxVQoGn8vpEVn8-50" target="OEn_OylxVQoGn8vpEVn8-53">
          <mxGeometry relative="1" as="geometry" />
        </mxCell>
        <mxCell id="OEn_OylxVQoGn8vpEVn8-50" value="phi(x) - f(x) &amp;lt; погрешность?" style="rhombus;whiteSpace=wrap;html=1;shadow=0;fontFamily=Helvetica;fontSize=12;align=center;strokeWidth=1;spacing=6;spacingTop=-4;" vertex="1" parent="WIyWlLk6GJQsqaUBKTNV-1">
          <mxGeometry x="165" y="530" width="130" height="80" as="geometry" />
        </mxCell>
        <mxCell id="OEn_OylxVQoGn8vpEVn8-56" value="Нет" style="edgeStyle=orthogonalEdgeStyle;rounded=0;orthogonalLoop=1;jettySize=auto;html=1;entryX=0;entryY=0.5;entryDx=0;entryDy=0;" edge="1" parent="WIyWlLk6GJQsqaUBKTNV-1" source="OEn_OylxVQoGn8vpEVn8-53" target="OEn_OylxVQoGn8vpEVn8-55">
          <mxGeometry relative="1" as="geometry" />
        </mxCell>
        <mxCell id="OEn_OylxVQoGn8vpEVn8-58" value="Да" style="edgeStyle=orthogonalEdgeStyle;rounded=0;orthogonalLoop=1;jettySize=auto;html=1;entryX=0.5;entryY=1;entryDx=0;entryDy=0;" edge="1" parent="WIyWlLk6GJQsqaUBKTNV-1" source="OEn_OylxVQoGn8vpEVn8-53" target="OEn_OylxVQoGn8vpEVn8-57">
          <mxGeometry relative="1" as="geometry" />
        </mxCell>
        <mxCell id="OEn_OylxVQoGn8vpEVn8-53" value="phi(x) в пределах промежутка?" style="rhombus;whiteSpace=wrap;html=1;shadow=0;fontFamily=Helvetica;fontSize=12;align=center;strokeWidth=1;spacing=6;spacingTop=-4;" vertex="1" parent="WIyWlLk6GJQsqaUBKTNV-1">
          <mxGeometry x="165" y="640" width="130" height="80" as="geometry" />
        </mxCell>
        <mxCell id="OEn_OylxVQoGn8vpEVn8-55" value="Конец" style="ellipse;whiteSpace=wrap;html=1;" vertex="1" parent="WIyWlLk6GJQsqaUBKTNV-1">
          <mxGeometry x="340" y="655" width="120" height="50" as="geometry" />
        </mxCell>
        <mxCell id="OEn_OylxVQoGn8vpEVn8-59" style="edgeStyle=orthogonalEdgeStyle;rounded=0;orthogonalLoop=1;jettySize=auto;html=1;entryX=0;entryY=0.5;entryDx=0;entryDy=0;" edge="1" parent="WIyWlLk6GJQsqaUBKTNV-1" source="OEn_OylxVQoGn8vpEVn8-57" target="OEn_OylxVQoGn8vpEVn8-45">
          <mxGeometry relative="1" as="geometry">
            <Array as="points">
              <mxPoint x="90" y="460" />
            </Array>
          </mxGeometry>
        </mxCell>
        <mxCell id="OEn_OylxVQoGn8vpEVn8-57" value="x = phi(x)" style="rounded=1;whiteSpace=wrap;html=1;fontSize=12;glass=0;strokeWidth=1;shadow=0;" vertex="1" parent="WIyWlLk6GJQsqaUBKTNV-1">
          <mxGeometry x="20" y="550" width="140" height="40" as="geometry" />
        </mxCell>
      </root>
    </mxGraphModel>
  </diagram>
</mxfile>
